<svg version="1.0" xmlns="http://www.w3.org/2000/svg" width="240" height="240" viewBox="0 0 180 180">
  <path fill="white" d="M73.5 6.9c-7 3.2-11.4 9.7-16 23.8-3.1 9.6-7.1 14.3-21.5 25-5.2 3.8-10.9 8.6-12.7 10.6C15.7 75 11.9 85.4 11.7 98c0 6.9.3 8.6 3.2 14.3 2 4.2 5.1 8.3 8.5 11.5 5.7 5.2 17.7 11.8 26.2 14.6 5.7 1.9 10.2 6.1 23 21.9 9.5 11.6 13.5 14.7 18.8 14.7 6.1 0 10.6-2.9 13.9-8.7 2.2-4.2 2.9-7.4 4.1-17.9 1.4-13.6 2.6-17.2 7.3-21.6 4.2-4 9.8-6 19.7-6.9 10.5-1 16-3.4 21.2-9.1 4.7-5.2 9.1-14.9 10.3-23 1.9-11.9-2.7-25.7-11.2-33.5-5.5-5.1-10.4-7.6-18.7-9.8-13.7-3.6-20.5-8.6-26.5-19.6-5-9.3-11.6-15.8-18.1-18.2-6.3-2.2-14.8-2.2-19.9.2m15.6 7.2c5.9 2 9.8 5.8 14.7 14.1 8 13.9 16.1 20 32.8 24.8 12 3.4 18.3 8.9 21.8 19.3 3.3 9.9.7 23.7-6 31.5-4.8 5.7-5.9 6.2-18.2 7.8-12.6 1.6-19.4 4.6-24.9 10.8-5.1 5.8-7.4 12.7-8.3 25-.8 11.3-2.9 17.1-6.7 18.9-3.7 1.7-6.4-.5-17.5-14-12.3-15.1-17.3-19.6-24.1-21.8-14.2-4.6-25.9-13-30.3-21.8-2.3-4.4-2.5-6-2.2-12.6.9-14.7 5.8-22.6 21.2-34.1 15.7-11.6 20.4-17.1 24.1-28.5 5.7-17.8 12.3-23.1 23.6-19.4"/>
</svg>
