<svg xmlns="http://www.w3.org/2000/svg" viewBox="0 0 171 82">
  <path d="M45,18l-9-5-9,5-9-5L9,17,0,22V58L9,72l9,5,9,5,9-5,9,5,9-4,9-5V37L54,23ZM36,58l-9,5-9-5V32l9,5,9-5,9,5V63Z" fill="#842621"/>
  <polygon points="117 28 117 37 117 46 117 55 117 63 108 58 99 63 90 58 90 49 90 40 90 31 90 22 90 13 81 8 72 13 72 22 72 31 72 40 72 49 72 58 81 72 90 77 99 82 108 77 117 82 126 78 135 73 135 64 135 55 135 46 135 37 135 28 126 23 117 28" fill="#842621"/>
  <polygon points="171 5 162 0 153 5 153 13 144 18 144 27 153 32 153 41 153 50 153 59 153 68 153 77 162 82 171 77 171 68 171 59 171 50 171 41 171 32 162.474 18.737 171 14 171 5" fill="#842621"/>
  <polygon points="18 32 18 40 18 49 18 58 27 63 36 58 45 63 45 55 45 46 45 37 36 32 27 37 18 32" fill="none"/>
  <polygon points="162 64 162 55 162 46 162 37 153 23 144 18 144 27 153 32 153 41 153 50 153 59 153 68 153 77 162 82 162 73 162 64" fill="#f0463c"/>
  <polygon points="27 63 18 58 9 63 18 68 27 73 36 68 45 73 45 72 45 64 45 63 36 58 27 63" fill="#f1a4a0"/>
  <polygon points="18 68 9 63 9 54 9 45 9 36 9 27 18 32 27 37 27 28 18 23 9 18 0 22 0 31 0 40 0 49 0 58 9 72 18 77 27 82 27 73 18 68" fill="#f0463c"/>
  <polygon points="27 73 27 82 36 77 36 68 27 73" fill="#842621"/>
  <polygon points="54 69 54 68 54 60 54 51 54 42 45 28 36 23 36 32 45 37 45 46 45 55 45 63 45 64 45 72 45 73 36 68 36 77 45 82 54 78 54 77 54 69" fill="#f0463c"/>
  <polygon points="54 42 54 51 54 60 54 68 54 69 54 77 54 78 63 73 63 64 63 55 63 46 63 37 54 42" fill="#842621"/>
  <polygon points="18 49 18 40 18 32 9 27 9 36 9 45 9 54 9 63 18 58 18 49" fill="#842621"/>
  <polygon points="36 32 36 23 27 28 27 37 36 32" fill="#842621"/>
  <polygon points="45 18 36 13 27 18 18 13 9 17 0 22 9 18 18 23 27 28 36 23 45 28 54 42 63 37 54 23 45 18" fill="#f1a4a0"/>
  <polygon points="162 37 162 46 162 55 162 64 162 73 162 82 171 77 171 68 171 59 171 50 171 41 171 32 162 37" fill="#842621"/>
  <polygon points="90 68 99 73 108 68 117 73 117 72 117 64 117 63 108 58 99 63 90 58 81 63 90 68" fill="#f1a4a0"/>
  <polygon points="90 68 81 63 81 54 81 45 81 36 81 27 81 18 72 13 72 22 72 31 72 40 72 49 72 58 81 72 90 77 99 82 99 73 90 68" fill="#f0463c"/>
  <polygon points="99 73 99 82 108 77 108 68 99 73" fill="#842621"/>
  <polygon points="126 69 126 68 126 60 126 51 126 42 126 33 117 28 117 37 117 46 117 55 117 63 117 64 117 72 117 73 108 68 108 77 117 82 126 78 126 77 126 69" fill="#f0463c"/>
  <polygon points="117 28 126 33 135 28 126 23 117 28" fill="#f1a4a0"/>
  <polygon points="126 33 126 42 126 51 126 60 126 68 126 69 126 77 126 78 135 73 135 64 135 55 135 46 135 37 135 28 126 33" fill="#842621"/>
  <polygon points="81 18 90 13 81 8 72 13 81 18" fill="#f1a4a0"/>
  <polygon points="81 18 81 27 81 36 81 45 81 54 81 63 90 58 90 49 90 40 90 31 90 22 90 13 81 18" fill="#842621"/>
  <polygon points="153 14 153 13 144 18 153 23 162 37 171 32 162.474 18.737 162 19 153 14" fill="#f1a4a0"/>
  <polygon points="171 5 162 0 153 5 162 10 171 5" fill="#f1a4a0"/>
  <polygon points="162 19 162 18 162 10 153 5 153 13 153 14 162 19" fill="#f0463c"/>
  <polygon points="171 5 162 10 162 18 162 19 162.474 18.737 171 14 171 5" fill="#842621"/>
</svg>
